#!OML:ASF F:\VICON\USERDATA\INSTALL\rory3\rory3.ASF
:FULLY-SPECIFIED
:DEGREES
10
root 0.7324319767800931 17.85860196450258 -14.764184380916726 0.26211742203304667 -5.999817345300128 -7.604165651762957
lfemur -28.74198767725011 -7.416372937266228 -8.534826577782862
ltibia 22.52110510077689
lfoot -4.253632658510643 6.782376555453828
ltoes -4.06409877088807
rfemur 3.7123295380457435 6.925069269005471 35.31198539686152
rtibia 24.174807651323043
rfoot -20.670187762185783 -3.139475593984787
rtoes 4.654248114600532
lowerback 11.726184494614643 1.7272608456368266 6.649667452511581
upperback -0.2586139244925335 3.3780588346969616 2.4349963854109777
thorax -6.633900905633097 1.4668294701908842 -1.7417601564949678
lowerneck -16.46109684729887 -3.259840636234397 -1.6438048797650926
upperneck 21.41499871236758 -3.9919756687674615 -0.47100269417702534
head 9.506608558071772 -2.045680512848966 -0.4056214480093867
lclavicle -3.6163622499273606e-16 5.803563190676203e-16
lhumerus -36.20169224220554 8.308374816359883 80.60829511780078
lradius 22.88950375898559
lwrist 3.6006745989459077
lhand -26.249710374882948 22.071196572964233
lfingers 7.12502
lthumb 0.3045816247682609 52.0506965406064
rclavicle -3.6163622499273606e-16 5.803563190676203e-16
rhumerus -21.272310827482293 -8.800461971214416 -81.96069252882063
rradius 31.361489920845337
rwrist -1.7112681824633809
rhand -19.022891481700707 24.132693168560724
rfingers 7.12502
rthumb 7.283098518065023 -5.721926692646647
11
root 0.7408567779502684 17.868001290549138 -14.38928457226041 0.5215627579964908 -6.723334932261826 -7.523225857511074
lfemur -27.72548831675025 -8.460759788253537 -7.8705275441624405
ltibia 16.92280835749361
lfoot -6.067730564990222 7.744285198416618
ltoes -0.49805709899693174
rfemur 5.0685686081992305 6.904329334613555 35.036485811530895
rtibia 23.57250797359343
rfoot -20.535587895211442 -2.734286327265433
rtoes 4.766007959360147
lowerback 11.603185604819219 2.1305381972770805 6.714697299745978
upperback -0.3569341235373963 3.8992766730412463 2.1688397763747327
thorax -6.60654130947286 1.7138572213787242 -2.138548479001195
lowerneck -16.447397083244113 -3.333588394648445 -1.3429094968518571
upperneck 21.39829890330956 -4.222831618193163 -0.2779745227595567
head 9.49624890801181 -2.1062877571310032 -0.4180861631442646
lclavicle -3.616363287042916e-16 5.803562609089331e-16
lhumerus -36.511891775237544 8.810943971702667 80.00599828470186
lradius 21.884405809907143
lwrist 3.017476248457227
lhand -26.287710202849873 19.197202253048474
lfingers 7.12502
lthumb 0.2678607969059499 49.176802212000815
rclavicle -3.616363287042916e-16 5.803562609089331e-16
rhumerus -20.905811398692762 -8.921811812484227 -82.22509194271557
rradius 32.23908805502988
rwrist -2.2376870852652564
rhand -19.06439114898631 22.44060020575221
rfingers 7.12502
rthumb 7.242958851536002 -7.415449613300806
12
root 0.7585693599238368 17.840903233542573 -13.990084776006588 0.5045878668704384 -7.479862409130645 -7.8513150235118
lfemur -26.019689389902553 -8.810978732280912 -7.243828455844065
ltibia 11.502211510836428
lfoot -1.0732263287897315 6.762116584036077
ltoes -24.45186830902992
rfemur 6.624267541601776 6.962369151012157 35.17548560231474
rtibia 23.509208007463126
rfoot -20.586087845302103 -1.9670077158277959
rtoes 5.039387579621285
lowerback 11.307788271115406 2.247727427684547 7.020086582337317
upperback -0.16162868741714942 4.067915973640575 2.3683572344259485
thorax -6.212037132529308 1.8077363667518178 -2.1033786276880417
lowerneck -16.200701331980756 -3.1443641461780687 -1.5141268696082686
upperneck 20.91230446006416 -3.94173655025777 -0.1557636804797481
head 9.286315999364286 -1.9780935859223383 -0.3012808325807124
lclavicle -3.6163640521102044e-16 5.803563376895521e-16
lhumerus -36.93989113093615 10.363591362201483 79.57600054564735
lradius 21.159407289280473
lwrist 2.189558590129742
lhand -26.372609818491725 16.774707040802152
lfingers 7.12502
lthumb 0.1858301814441563 46.754306992596156
rclavicle -3.6163640521102044e-16 5.803563376895521e-16
rhumerus -20.27241238588167 -8.08458290761136 -82.34029168734756
rradius 32.46778756880384
rwrist -2.258737041391501
rhand -19.016391533812605 22.918198219485056
rfingers 7.12502
rthumb 7.289348466141916 -6.936241616509086
13
root 0.7742479898997631 17.812905241063454 -13.594684977813225 0.5476945903915307 -7.704531659825427 -7.447986048769888
lfemur -24.794790160511226 -7.763231891424591 -8.29495692672982
ltibia 8.31284336619871
lfoot -5.5250111913037685 7.429345642725666
ltoes -0.5667609963447835
rfemur 7.644346842228595 6.79747967261857 34.519886589092344
rtibia 24.050607717778252
rfoot -20.465487964491466 -1.3771787832552551
rtoes 3.952479089395111
lowerback 11.226189007641365 2.4547660680426118 6.899026866726117
upperback -0.23932147409768673 4.30253500060105 2.0275415765820473
thorax -6.21016716013093 1.9200753440762008 -2.427397257841191
lowerneck -16.472996642353728 -3.17357325835806 -1.2979201871899564
upperneck 21.139601861195192 -4.079934125457596 0.019160062443468573
head 9.415581632882747 -2.0031824451705864 -0.30207981432100817
lclavicle -3.616363597336483e-16 5.803562661202665e-16
lhumerus -37.42139040609706 10.386191324218204 79.14470281342825
lradius 20.810208001828286
lwrist 2.1524186951757827
lhand -26.193810627952686 18.091804437726665
lfingers 7.12502
lthumb 0.35858837159867063 48.0712043938073
rclavicle -3.616363597336483e-16 5.803562661202665e-16
rhumerus -20.018812781131263 -8.578462261598439 -82.51049131005904
rradius 32.63188721992015
rwrist -2.0120675555168486
rhand -19.61218675715622 22.991697913809524
rfingers 7.12502
rthumb 6.714183244480291 -6.881841843913629
14
root 0.7946825076341886 17.772308151968744 -13.201685178394959 0.5279327171407058 -7.8936610290509766 -7.211676649465922
lfemur -24.225290518794893 -6.783934844179926 -9.244075546013
ltibia 7.962863569793679
lfoot -4.743282093441311 5.768447985879435
ltoes -1.094553207757706
rfemur 8.494026259682743 7.213308357198628 34.18338709557598
rtibia 25.253507074147116
rfoot -20.11448831138605 -0.9842944942672869
rtoes 0.8725723675497079
lowerback 11.18328939485906 2.5470854617725944 6.76965717063638
upperback -0.13419346899424794 4.390514635721586 1.9201129452746986
thorax -6.066319283389324 1.9732148603216808 -2.47580705318011
lowerneck -17.104685763039036 -3.3185188526918377 -1.3223598121763285
upperneck 21.538197303741725 -4.254321065682617 -0.049738884867286615
head 9.67277294518218 -2.088968544608896 -0.36117146385692833
lclavicle -3.616362593984276e-16 5.803562584074316e-16
lhumerus -37.57079018119373 11.413489597660014 78.61530559702021
lradius 20.306109030451857
lwrist 1.0807717262093997
lhand -26.18901064968318 19.636801384236705
lfingers 7.12502
lthumb 0.3631603501664227 49.616301344685375
rclavicle -3.616362593984276e-16 5.803562584074316e-16
rhumerus -19.457713655636603 -8.567492275947592 -82.65009100060269
rradius 32.72288702645024
rwrist -1.90644777565677
rhand -19.31728912143277 22.55669972290963
rfingers 7.12502
rthumb 6.998830879694191 -7.307630064013264
